<svg xmlns="http://www.w3.org/2000/svg" viewBox="0 0 64 64" fill="none">
  <defs>
    <linearGradient id="g" x1="12" y1="12" x2="52" y2="52" gradientUnits="userSpaceOnUse">
      <stop offset="0" stop-color="#5D7BFF" />
      <stop offset="1" stop-color="#FF72B2" />
    </linearGradient>
  </defs>
  <rect x="6" y="6" width="52" height="52" rx="15" fill="url(#g)" />
  <path
    d="M19 40c2.5 4.5 7.8 7 13.1 6.1 6.6-1.1 11.4-7.2 10.8-13.9-.5-5.4-4.5-10-9.8-11.2-5.9-1.4-11.9 1.5-14.5 7.1h8.2c1.5-1.4 3.6-2.1 5.7-1.6 2.9.6 5 3.2 4.9 6.2-.1 3.9-3.8 7.1-7.7 6.5-2.1-.3-4-1.6-5-3.4H19Z"
    fill="#fff"
  />
</svg>
